<svg xmlns="http://www.w3.org/2000/svg" xmlns:xlink="http://www.w3.org/1999/xlink" viewBox="0 0 172.51 172.51"><defs><style>.cls-1{stroke:#fff;stroke-miterlimit:10;fill:url(#Degradado_sin_nombre_31);}.cls-2{fill:#fff;}</style><linearGradient id="Degradado_sin_nombre_31" x1="0.5" y1="86.26" x2="172.01" y2="86.26" gradientUnits="userSpaceOnUse"><stop offset="0" stop-color="#be272d"/><stop offset="1" stop-color="#8e333f"/></linearGradient></defs><title>branding</title><g id="Capa_2" data-name="Capa 2"><g id="Capa_1-2" data-name="Capa 1"><circle class="cls-1" cx="86.26" cy="86.26" r="85.76"/><path class="cls-2" d="M125.93,64.54H99l1.31-7.83-14.78-19-14.78,19,1.31,7.83H45.21a7.35,7.35,0,0,0-7.34,7.34v47.7a7.35,7.35,0,0,0,7.34,7.34H69.06v9.17H61.72v3.67h47.7v-3.67h-7.34v-9.17h23.85a7.35,7.35,0,0,0,7.34-7.34V71.88A7.35,7.35,0,0,0,125.93,64.54ZM85.57,57.2A1.83,1.83,0,1,1,83.73,59,1.84,1.84,0,0,1,85.57,57.2ZM83.73,46v7.83a5.5,5.5,0,1,0,3.67,0V46L96.47,57.7,93.19,77.38H77.95L74.67,57.7Zm-7.34,35H94.74a1.83,1.83,0,0,1,0,3.67H76.39a1.83,1.83,0,1,1,0-3.67Zm16.51,20.18H78.23V88.39H92.91ZM74.3,77.8a5.48,5.48,0,0,0,.26,10.25v13.18a3.67,3.67,0,0,0,3.67,3.67H92.91a3.67,3.67,0,0,0,3.67-3.67V88.05a5.48,5.48,0,0,0,.26-10.25l.38-2.25h25v40.36H48.88V75.55h25Zm24.11,58.29H72.73v-9.17H98.41Zm31.19-16.51h0a3.67,3.67,0,0,1-3.67,3.67H45.21a3.67,3.67,0,0,1-3.67-3.67V71.88a3.67,3.67,0,0,1,3.67-3.67H72.7l.61,3.67H45.21v47.7h80.72V71.88H97.82l.61-3.67h27.49a3.67,3.67,0,0,1,3.67,3.67v47.7Z"/><path class="cls-2" d="M56.22,37a5.5,5.5,0,0,0,5.17-3.67h11A25.69,25.69,0,0,0,60.18,51.7h-4v11h11v-11H63.88a22,22,0,0,1,43.36,0h-3.34v11h11v-11h-4A25.7,25.7,0,0,0,98.73,33.36h9.19a5.5,5.5,0,1,0,0-3.67H61.38A5.49,5.49,0,1,0,56.22,37Zm7.34,22H59.88V55.37h3.67Zm44-3.67h3.67V59h-3.67Zm5.5-25.68a1.83,1.83,0,1,1-1.83,1.83A1.84,1.84,0,0,1,113.09,29.69Zm-56.87,0a1.83,1.83,0,1,1-1.83,1.83A1.84,1.84,0,0,1,56.22,29.69Z"/><rect class="cls-2" x="100.24" y="95.73" width="3.67" height="3.67"/><rect class="cls-2" x="107.58" y="95.73" width="3.67" height="3.67"/><rect class="cls-2" x="114.92" y="95.73" width="3.67" height="3.67"/><rect class="cls-2" x="52.55" y="95.73" width="3.67" height="3.67"/><rect class="cls-2" x="59.88" y="95.73" width="3.67" height="3.67"/><rect class="cls-2" x="67.22" y="95.73" width="3.67" height="3.67"/></g></g></svg>