<svg xmlns="http://www.w3.org/2000/svg" xmlns:xlink="http://www.w3.org/1999/xlink" viewBox="0 0 172.51 172.51"><defs><style>.cls-1{stroke:#fff;stroke-miterlimit:10;fill:url(#Degradado_sin_nombre_31);}.cls-2{fill:#fff;}</style><linearGradient id="Degradado_sin_nombre_31" x1="0.5" y1="86.26" x2="172.01" y2="86.26" gradientUnits="userSpaceOnUse"><stop offset="0" stop-color="#be272d"/><stop offset="1" stop-color="#8e333f"/></linearGradient></defs><title>diseñoweb</title><g id="Capa_2" data-name="Capa 2"><g id="Capa_1-2" data-name="Capa 1"><circle class="cls-1" cx="86.26" cy="86.26" r="85.76"/><path class="cls-2" d="M135.82,46.92H38.11a5.44,5.44,0,0,0-5.43,5.43v64.78a5.44,5.44,0,0,0,5.43,5.43h97.71a5.44,5.44,0,0,0,5.43-5.43V52.35A5.44,5.44,0,0,0,135.82,46.92ZM38.11,50.54h97.71a1.81,1.81,0,0,1,1.81,1.81v7.24H36.3V52.35A1.81,1.81,0,0,1,38.11,50.54Zm97.71,68.4H38.11a1.81,1.81,0,0,1-1.81-1.81V63.2H137.63v53.92A1.81,1.81,0,0,1,135.82,118.93Z"/><path class="cls-2" d="M127,56.87h6.06a1.81,1.81,0,0,0,0-3.62H127a1.81,1.81,0,1,0,0,3.62Z"/><path class="cls-2" d="M91.67,73.24A5.63,5.63,0,0,0,87,70.53a5.33,5.33,0,0,0-4.7,2.8l-5.34,10a5.55,5.55,0,0,0-.63,4l3.26,14.39v8.6a1.81,1.81,0,0,0,1.81,1.81H92.66a1.81,1.81,0,0,0,1.81-1.81v-8.6l3.26-14.39a5.24,5.24,0,0,0-.63-3.89ZM80.09,85.1l5.07-9.59V86a1.81,1.81,0,1,0,3.62,0V75.51l5.16,9.68a1.86,1.86,0,0,1,.27,1.36l-3,13.21H82.8l-3-13.21A2.18,2.18,0,0,1,80.09,85.1Zm3,23.43v-5.16h7.69v5.16Z"/><path class="cls-2" d="M107.14,76.23a29.18,29.18,0,0,0-9-6.15,1.81,1.81,0,0,0-1.36,3.35,26.19,26.19,0,0,1,8,5.34,23.72,23.72,0,0,1,5.34,8,25.48,25.48,0,0,1,2,9.77,1.81,1.81,0,0,0,3.62,0,27.51,27.51,0,0,0-2.26-11.13A30.37,30.37,0,0,0,107.14,76.23Z"/><path class="cls-2" d="M78.19,71.07a1.84,1.84,0,0,0-2.35-1,28.16,28.16,0,0,0-9,6.15,28.55,28.55,0,0,0-6.15,9.14A29.12,29.12,0,0,0,58.37,96.5a1.81,1.81,0,1,0,3.62,0,24.52,24.52,0,0,1,2-9.77,26.19,26.19,0,0,1,5.34-8,25.14,25.14,0,0,1,8-5.34A1.72,1.72,0,0,0,78.19,71.07Z"/></g></g></svg>