<svg xmlns="http://www.w3.org/2000/svg" xmlns:xlink="http://www.w3.org/1999/xlink" viewBox="0 0 172.51 172.51"><defs><style>.cls-1{stroke:#fff;stroke-miterlimit:10;fill:url(#Degradado_sin_nombre_31);}.cls-2{fill:#fff;}</style><linearGradient id="Degradado_sin_nombre_31" x1="0.5" y1="86.26" x2="172.01" y2="86.26" gradientUnits="userSpaceOnUse"><stop offset="0" stop-color="#be272d"/><stop offset="1" stop-color="#8e333f"/></linearGradient></defs><title>diseñoapps</title><g id="Capa_2" data-name="Capa 2"><g id="Capa_1-2" data-name="Capa 1"><circle class="cls-1" cx="86.26" cy="86.26" r="85.76"/><path class="cls-2" d="M78.71,77.24A1.38,1.38,0,0,0,76.83,77l-7.19,6.09a1.2,1.2,0,0,0-.44,1,1.4,1.4,0,0,0,.44,1l7.19,6.09a1.26,1.26,0,0,0,.89.33,1.4,1.4,0,0,0,1-.44,1.28,1.28,0,0,0-.22-1.88l-6-5,6-5A1.42,1.42,0,0,0,78.71,77.24Z"/><path class="cls-2" d="M102.73,83.44l-7.19-6.09a1.38,1.38,0,0,0-1.88.22,1.28,1.28,0,0,0,.22,1.88l6,5-6,5a1.38,1.38,0,0,0-.22,1.88,1.2,1.2,0,0,0,1,.44,1.26,1.26,0,0,0,.89-.33l7.19-6.09a1.2,1.2,0,0,0,.44-1A1.14,1.14,0,0,0,102.73,83.44Z"/><path class="cls-2" d="M89.89,70.93a1.38,1.38,0,0,0-1.66.89L80.59,96.28a1.38,1.38,0,0,0,.89,1.66c.11,0,.22.11.44.11a1.39,1.39,0,0,0,1.33-1L90.77,72.7A1.36,1.36,0,0,0,89.89,70.93Z"/><path class="cls-2" d="M108.26,34.85H64.1a6.5,6.5,0,0,0-6.42,6.42v90.65a6.5,6.5,0,0,0,6.42,6.42h44.16a6.5,6.5,0,0,0,6.42-6.42V41.27A6.57,6.57,0,0,0,108.26,34.85Zm2.88,97.07a2.79,2.79,0,0,1-2.88,2.88H64.1a2.79,2.79,0,0,1-2.88-2.88v-9.85h50v9.85Zm0-13.28h-50V47.69h50Zm0-74.49h-50V41.27A2.79,2.79,0,0,1,64,38.39H79.81a1.31,1.31,0,0,0,1.33,1.11h9.74a1.42,1.42,0,0,0,1.33-1.11H108a2.79,2.79,0,0,1,2.88,2.88v2.88Z"/><circle class="cls-2" cx="86.12" cy="128.49" r="2.99"/></g></g></svg>