<svg xmlns="http://www.w3.org/2000/svg" xmlns:xlink="http://www.w3.org/1999/xlink" viewBox="0 0 172.51 172.51"><defs><style>.cls-1{fill:none;stroke-width:0.85px;}.cls-1,.cls-2{stroke:#fff;stroke-miterlimit:10;}.cls-2{fill:url(#Degradado_sin_nombre_31);}.cls-3{fill:#fff;}</style><linearGradient id="Degradado_sin_nombre_31" x1="0.5" y1="86.26" x2="172.01" y2="86.26" gradientUnits="userSpaceOnUse"><stop offset="0" stop-color="#be272d"/><stop offset="1" stop-color="#8e333f"/></linearGradient></defs><title>gestionredes</title><g id="Capa_2" data-name="Capa 2"><g id="Capa_1-2" data-name="Capa 1"><path class="cls-1" d="M138.23,117.48"/><circle class="cls-2" cx="86.26" cy="86.26" r="85.76"/><path class="cls-3" d="M132.33,95.94a9.22,9.22,0,0,0-11.66,2.58l-9.22-5.69a3.94,3.94,0,0,0-2.17-5.15,4.87,4.87,0,0,0-2.44-.27l-2.58-6.24a3.79,3.79,0,0,0,1.08-5.42,3.93,3.93,0,0,0-5.42-1.08,8.86,8.86,0,0,0-1.49,1.63L81.76,72.35V71.8A5.34,5.34,0,0,0,80.94,69l19.25-17.63a5.1,5.1,0,0,0,6,.27l9.22,8.95a3.63,3.63,0,1,0,5-1.08,4.31,4.31,0,0,0-4.07,0l-9.22-8.95a5.12,5.12,0,0,0,1.08-3.12l11.66-2.3a9,9,0,1,0,4.88-11.8,8.91,8.91,0,0,0-5.29,10.3l-11.25,2.17a5.26,5.26,0,0,0-4.47-3.66l-.27-5.42a3.55,3.55,0,0,0,2.71-4.2,3.69,3.69,0,0,0-4.34-2.71A3.55,3.55,0,0,0,99.11,34a3.48,3.48,0,0,0,2.71,2.71l.14,5.56a5,5,0,0,0-3,2L87.59,37.64a3.31,3.31,0,1,0-4.07,2.3,3.22,3.22,0,0,0,3.12-.81L98,45.77a5.27,5.27,0,0,0,.68,4.47l-19,17.63a5.1,5.1,0,0,0-6.37,0l-14.1-14.1A8.76,8.76,0,1,0,45.83,42.52a8.78,8.78,0,0,0,1.08,12.34,8.64,8.64,0,0,0,11.25-.14l14.24,14a5.23,5.23,0,0,0-.81,4.07L59.66,76.68A3.86,3.86,0,1,0,58.3,82,3.75,3.75,0,0,0,60.06,78L72,74.11a4.91,4.91,0,0,0,4.2,2.58l-.27,7.46A3.35,3.35,0,1,0,80,86.58a3.21,3.21,0,0,0-2.44-2.44l.27-7.59a5.13,5.13,0,0,0,3.39-2.85L98,77.5v.14A3.93,3.93,0,0,0,102,81.57a1,1,0,0,0,.68-.14l2.58,6.24a3.82,3.82,0,0,0-.95,5.42l-4.34,5.42A2.81,2.81,0,1,0,96.53,103l-5.69,10.3a5,5,0,0,0-3.66.41L73.62,99.87a5.13,5.13,0,0,0-8.13-6.24,5.11,5.11,0,0,0,.27,6.51L55.72,114a1.93,1.93,0,0,0-.81-.27,7.37,7.37,0,0,0-1.49-.27,8.66,8.66,0,1,0,3.53,1.22l9.9-13.56.81.41a12.09,12.09,0,0,0,1.49.27h.54a4.88,4.88,0,0,0,3-.95l13.56,14a4.54,4.54,0,0,0,0,4.88l-7.46,7.59a3.11,3.11,0,1,0,.68,4.34,3.19,3.19,0,0,0,.27-3.12l7.46-7.73a5.81,5.81,0,0,0,2.17.68l2,8.81a11.71,11.71,0,1,0,14.91,7.19,11.82,11.82,0,0,0-13.56-7.59l-1.9-8.68A4.18,4.18,0,0,0,93.55,118l6.24-.41a2.66,2.66,0,0,0,3.25,1.76,2.55,2.55,0,0,0,1.76-3.25,2.66,2.66,0,0,0-3.25-1.76,2.56,2.56,0,0,0-1.76,1.76l-6.1.41a3.64,3.64,0,0,0-1.49-2.3l6-10.3a2.71,2.71,0,0,0,3.25-2.17,3,3,0,0,0-.27-1.9l4.61-5.15a4.06,4.06,0,0,0,4.88-.54l9.22,5.83a9.25,9.25,0,1,0,16.41,8.54A9.5,9.5,0,0,0,132.33,95.94Zm-4.2-59.66a2.3,2.3,0,1,1-2.3,2.3A2.21,2.21,0,0,1,128.12,36.28Zm0,5.42a3.51,3.51,0,0,1,3.25,3.8c0,1.49-6.51,1.49-6.51,0A3.29,3.29,0,0,1,128.12,41.7ZM52.74,42.93a2.3,2.3,0,1,1-2.3,2.3A2.21,2.21,0,0,1,52.74,42.93ZM49.49,52a3.6,3.6,0,0,1,3.25-3.8A3.51,3.51,0,0,1,56,52C56,53.5,49.49,53.5,49.49,52Zm2.58,64.27a2.58,2.58,0,1,1-2.58,2.58A2.49,2.49,0,0,1,52.06,116.27Zm-3.8,10a3.91,3.91,0,0,1,3.66-4.07,3.77,3.77,0,0,1,3.8,4.07C55.59,127.93,48.27,127.93,48.27,126.31ZM95,135.12a2.85,2.85,0,1,1,0,5.69A3,3,0,0,1,92.2,138,2.86,2.86,0,0,1,95,135.12Zm-.14,6.78H95a4.29,4.29,0,0,1,4.07,4.61v.14c0,1.76-8,1.76-8-.14A4.18,4.18,0,0,1,94.91,141.9ZM128.12,98a2.58,2.58,0,1,1-2.58,2.58A2.57,2.57,0,0,1,128.12,98Zm-3.66,10a4.05,4.05,0,0,1,3.8-4.2,4,4,0,0,1,3.66,4.2C131.78,109.63,124.46,109.63,124.46,108Z"/></g></g></svg>