<svg xmlns="http://www.w3.org/2000/svg" xmlns:xlink="http://www.w3.org/1999/xlink" viewBox="0 0 172.51 172.51"><defs><style>.cls-1{stroke:#fff;stroke-miterlimit:10;fill:url(#Degradado_sin_nombre_31);}.cls-2{fill:#fff;}</style><linearGradient id="Degradado_sin_nombre_31" x1="0.5" y1="86.26" x2="172.01" y2="86.26" gradientUnits="userSpaceOnUse"><stop offset="0" stop-color="#be272d"/><stop offset="1" stop-color="#8e333f"/></linearGradient></defs><title>publicidad</title><g id="Capa_2" data-name="Capa 2"><g id="Capa_1-2" data-name="Capa 1"><circle class="cls-1" cx="86.26" cy="86.26" r="85.76"/><path class="cls-2" d="M103.86,127.55H89.64l17.11-9.2,7.19-3.6v2.72A10.1,10.1,0,0,1,103.86,127.55Zm-4-2.57h4a7.53,7.53,0,0,0,7.36-6l-3.29,1.64Zm-14.32,2.46H52.22a10.45,10.45,0,0,1-3.38-.6,10.1,10.1,0,0,1-6.71-9.49V70.92A10.2,10.2,0,0,1,52.33,60.73H78.19l-1.1,1.92a8.32,8.32,0,0,0-.93,2,8.71,8.71,0,0,0,.08,5.11l.19.56-.3.51a3.87,3.87,0,0,0-.58,1.25l0,.12a5,5,0,0,0,.4,3.8l2.37,4.15H50.54V116.4a2.75,2.75,0,0,0,2.74,2.74h4.55l30.78-16.49a3.94,3.94,0,0,0,1.8-2.18l.05-.24a5.41,5.41,0,0,0,.12-.69,2,2,0,0,1-.1-.54,10.35,10.35,0,0,1,.25-3.7l0-.09c.08-.26,1.88-5.63,5.75-8.23l-2.47-2.53-.22.11A6.36,6.36,0,0,1,85.24,82L85,81.56l-.2.12a3.1,3.1,0,0,1-4.1-1.11L77.7,75A3.09,3.09,0,0,1,78.83,71l.22-.13L78.56,70A6.17,6.17,0,0,1,78,65.12a6.47,6.47,0,0,1,3-3.8l12.5-6.74h1.2l.62,1.17c4.35-3.58,10.9-10,13.68-18.2a3.37,3.37,0,0,1,.07-2.07,3.51,3.51,0,0,1,6.44-.49l5.65,10.51h.32a8.56,8.56,0,0,1,7.61,4.59,8.8,8.8,0,0,1-.46,9.09l5.77,10.65a3.54,3.54,0,0,1-1.07,4.61,3.4,3.4,0,0,1-4.55-.57c-8.45-2.06-17.37,0-22.68,1.83l.45.85v1.19l-3.74,2,3.37,3.65c2.32-1.6,5.85-3.52,8.72-2.83a5,5,0,0,1,3.91,4.57,5.9,5.9,0,0,1,2.69,2.32,5.74,5.74,0,0,1,.67,3.9A6.07,6.07,0,0,1,124,98.23a5.78,5.78,0,0,1,1.21,3.68c-.07,2-1.23,4-3.44,5.92a27.62,27.62,0,0,1-6.67,3.91l-9.29,4.64L100.89,119H101l-5.87,3.16ZM52.33,63.3a7.63,7.63,0,0,0-7.62,7.62v46.44a7.54,7.54,0,0,0,5,7.07,7.79,7.79,0,0,0,2.52.45H84.87l6-3.26h-.14l13.92-7.51,9.45-4.72a25.31,25.31,0,0,0,6-3.52c1.62-1.39,2.47-2.76,2.52-4a3.34,3.34,0,0,0-1-2.42l-.63-.63.35-.82c1.25-2.78-.23-4.31-1.22-5l-.76-.5.22-.89a3.61,3.61,0,0,0-.21-2.79,3.66,3.66,0,0,0-2-1.47l-1-.24v-1a2.71,2.71,0,0,0-2-3c-1.91-.46-5.14,1.28-7.51,3.07l-.93.7L99.6,80V78.64l4.05-2.22-.55-1V74l.85-.31c5.41-2,16-4.88,26-2.26l.51.13.27.45a.84.84,0,0,0,.55.4.85.85,0,0,0,.69-.15,1,1,0,0,0,.23-1.32l-6.56-12.1.58-.67a6.27,6.27,0,0,0,.69-6.93,6,6,0,0,0-6.21-3.15l-.89.13-6.47-12a1.1,1.1,0,0,0-1.25-.48,1.05,1.05,0,0,0-.51.59.79.79,0,0,0,0,.61l.23.47-.16.5c-3.14,9.76-11.25,17.2-15.81,20.76l-.35.27H94.18l-.73-1.39-11.14,6a3.89,3.89,0,0,0-1.82,2.28,3.63,3.63,0,0,0,.31,2.84L82,70.9v1.18l-1.91,1.11a.53.53,0,0,0-.13.65l3,5.48a.55.55,0,0,0,.63.1l1.5-.88h1.22l1.21,2.27a3.79,3.79,0,0,0,5.12,1.5l2-1,5.26,5.39v1.5l-.8.33C95.37,90,93.4,95.46,93.22,96A7.83,7.83,0,0,0,93,98.75v.16a2,2,0,0,1,.11.64,6,6,0,0,1-.17,1.22l-.1.46a6.52,6.52,0,0,1-3,3.69l-31.36,16.8h-5.2A5.32,5.32,0,0,1,48,116.4V77.58H73.86l-.17-.3A7.56,7.56,0,0,1,73,71.6,5.08,5.08,0,0,1,73.63,70a11.3,11.3,0,0,1,0-6,6.52,6.52,0,0,1,.22-.7ZM98.27,74.67l1.93.8L91.37,80H90.16L83.28,67.54V66.35l8.16-4.56h1.2l7.55,13.69M86.26,67.62,91.44,77l5.06-2.9-5.15-9.36ZM67.7,74.43a3.89,3.89,0,0,1-3.73-3,3.7,3.7,0,0,1-3.69,3,3.89,3.89,0,0,1-3.66-2.72,3.83,3.83,0,0,1-7.49-1.11A3.79,3.79,0,0,1,53,66.77a3.89,3.89,0,0,1,3.66,2.72,3.89,3.89,0,0,1,3.66-2.72,3.8,3.8,0,0,1,3.69,3,3.83,3.83,0,1,1,3.73,4.67Zm0-5.09A1.26,1.26,0,1,0,69,70.6,1.29,1.29,0,0,0,67.7,69.34Zm-7.42,0a1.26,1.26,0,0,0,0,2.52A1.12,1.12,0,0,0,61.43,71v-.79A1.22,1.22,0,0,0,60.28,69.34Zm-7.32,0a1.23,1.23,0,0,0-1.26,1.26A1.26,1.26,0,1,0,53,69.34Zm82.61-11a3.46,3.46,0,0,1-3.4-2.74,3.63,3.63,0,0,1,.66-2.85,3.21,3.21,0,0,1,2.29-1.23l8.75-1.06a3.47,3.47,0,0,1,3.74,2.69,3.3,3.3,0,0,1-2.95,4.11l-8.75,1.06ZM144.24,53h-.07l-8.77,1.06a.68.68,0,0,0-.53.25,1,1,0,0,0-.16.81.91.91,0,0,0,.94.63l8.77-1.06a.74.74,0,0,0,.71-1v-.06A.92.92,0,0,0,144.24,53Zm-11.33-1.65a3.26,3.26,0,0,1-3-1.81,3.33,3.33,0,0,1-.21-2.53,3.45,3.45,0,0,1,1.59-2L139,40.74a3.58,3.58,0,0,1,2.6-.29,3.23,3.23,0,0,1,2,1.68,3.36,3.36,0,0,1-1.42,4.59l-7.58,4.22A3.77,3.77,0,0,1,132.91,51.35Zm7.73-8.45a1.08,1.08,0,0,0-.47.12l-7.59,4.22a.89.89,0,0,0-.37.52.81.81,0,0,0,0,.6.83.83,0,0,0,1.16.32L141,44.45a.83.83,0,0,0,.32-1.16.67.67,0,0,0-.43-.36A.87.87,0,0,0,140.64,42.9Zm-12.1,2.69a3.51,3.51,0,0,1-2.31-.85,3.32,3.32,0,0,1-.33-4.68l5.59-6.86A3.34,3.34,0,0,1,133.92,32a3.4,3.4,0,0,1,2.82,5.56l-5.58,6.85a3.24,3.24,0,0,1-2.27,1.21Zm5.59-11.07h-.05a.79.79,0,0,0-.58.29l-5.64,6.91a.74.74,0,0,0-.2.56.77.77,0,0,0,.27.52,1,1,0,0,0,.72.21.69.69,0,0,0,.49-.24l0,0,5.62-6.89a.75.75,0,0,0-.06-1.08A.8.8,0,0,0,134.13,34.52Z"/></g></g></svg>