<svg xmlns="http://www.w3.org/2000/svg" xmlns:xlink="http://www.w3.org/1999/xlink" viewBox="0 0 172.51 172.51"><defs><style>.cls-1{stroke:#fff;stroke-miterlimit:10;fill:url(#Degradado_sin_nombre_31);}.cls-2{fill:#fff;}</style><linearGradient id="Degradado_sin_nombre_31" x1="0.5" y1="86.26" x2="172.01" y2="86.26" gradientUnits="userSpaceOnUse"><stop offset="0" stop-color="#be272d"/><stop offset="1" stop-color="#8e333f"/></linearGradient></defs><title>software</title><g id="Capa_2" data-name="Capa 2"><g id="Capa_1-2" data-name="Capa 1"><circle class="cls-1" cx="86.26" cy="86.26" r="85.76"/><path class="cls-2" d="M139.12,91.74l-4.57-.23q-.24-.68-.55-1.33l3.07-3.4A2,2,0,0,0,137,84l-4.42-4.42a1.91,1.91,0,0,0-.44-.29V42.68A4.63,4.63,0,0,0,127.51,38H33.84a4.63,4.63,0,0,0-4.63,4.63V107a4.63,4.63,0,0,0,4.63,4.63h38l-.77,8.27c0,.48-.56,4.73-8.6,4.73a2,2,0,1,0,0,4H98.85a2,2,0,1,0,0-4c-8,0-8.57-4.25-8.61-4.81l-.76-8.19h15.13L107,114a2,2,0,0,0,2.73.07l3.4-3.07q.65.31,1.33.55l.23,4.57a2,2,0,0,0,2,1.88h6.25a2,2,0,0,0,2-1.88l.24-4.57c.45-.16.89-.35,1.33-.55l3.39,3.06a2,2,0,0,0,2.73-.07l4.42-4.42a2,2,0,0,0,.07-2.73L134,103.5c.2-.43.39-.88.55-1.33l4.57-.24a2,2,0,0,0,1.88-2V93.72A2,2,0,0,0,139.12,91.74ZM33.18,42.68a.66.66,0,0,1,.66-.66h93.67a.66.66,0,0,1,.66.66v38.4l-1.72,1.56c-.43-.2-.88-.39-1.33-.55l-.24-4.57a2,2,0,0,0-2-1.88h-6.25a2,2,0,0,0-2,1.88l-.24,4.57q-.67.24-1.32.55l-3.4-3.07a2,2,0,0,0-2.73.07L102.58,84a2,2,0,0,0-.07,2.73l3.07,3.4c-.2.43-.39.88-.55,1.32l-4.57.24a2,2,0,0,0-1.88,2v2.16H33.18Zm40,82a8.32,8.32,0,0,0,1.93-4.44l.8-8.56H85.5l.79,8.44a8.42,8.42,0,0,0,1.94,4.56Zm29.37-17.77a1.94,1.94,0,0,0-.42.8H33.84a.66.66,0,0,1-.66-.66V99.84H98.57V100a2,2,0,0,0,1.88,2l4.57.24c.16.45.35.89.55,1.33ZM137,98.08l-4.07.21a2,2,0,0,0-1.82,1.49,11.77,11.77,0,0,1-1.26,3,2,2,0,0,0,.24,2.34l2.73,3-1.75,1.75-3-2.73a2,2,0,0,0-2.34-.24,11.5,11.5,0,0,1-3,1.25,2,2,0,0,0-1.49,1.82l-.21,4.07h-2.48l-.21-4.07a2,2,0,0,0-1.49-1.82,11.57,11.57,0,0,1-3-1.25,2,2,0,0,0-2.34.24l-3,2.73-1.75-1.75,2.73-3a2,2,0,0,0,.24-2.34,11.68,11.68,0,0,1-1.25-3,2,2,0,0,0-1.82-1.49l-4.07-.21V95.6l4.07-.21a2,2,0,0,0,1.82-1.49,11.64,11.64,0,0,1,1.25-3,2,2,0,0,0-.24-2.34l-2.73-3,1.75-1.75,3,2.73a2,2,0,0,0,2.34.24,11.68,11.68,0,0,1,3-1.26,2,2,0,0,0,1.48-1.82l.21-4.07H121l.21,4.07a2,2,0,0,0,1.48,1.82,11.7,11.7,0,0,1,3,1.26,2,2,0,0,0,2.34-.24l2.61-2.35a2,2,0,0,0,.55-.24l1.62,1.62-2.73,3a2,2,0,0,0-.24,2.34,11.58,11.58,0,0,1,1.25,3A2,2,0,0,0,133,95.39l4.07.21v2.48Zm-17.25-9.14a7.9,7.9,0,1,0,7.9,7.9A7.91,7.91,0,0,0,119.79,88.94Zm0,11.84a3.93,3.93,0,1,1,3.93-3.93A3.94,3.94,0,0,1,119.79,100.77ZM62.41,53.4a2,2,0,0,0-2.8.08L45,69a2,2,0,0,0,0,2.72L59.61,87.15a2,2,0,1,0,2.88-2.72L49.17,70.31,62.49,56.2A2,2,0,0,0,62.41,53.4Zm18.23-.21a2,2,0,0,0-2.56,1.14L66.35,84.88a2,2,0,1,0,3.7,1.42L81.78,55.76A2,2,0,0,0,80.64,53.19ZM103.13,69,88.53,53.48a2,2,0,1,0-2.89,2.72L99,70.32,85.64,84.43a2,2,0,1,0,2.89,2.72l14.61-15.47A2,2,0,0,0,103.13,69Z"/></g></g></svg>